<mxfile host="app.diagrams.net" agent="Mozilla/5.0 (Windows NT 10.0; Win64; x64) AppleWebKit/537.36 (KHTML, like Gecko) Chrome/135.0.0.0 Safari/537.36 Edg/135.0.0.0" version="26.2.8">
  <diagram name="第 1 页" id="uclZAVMgr2b5wqv276lR">
    <mxGraphModel dx="1657" dy="1107" grid="1" gridSize="10" guides="1" tooltips="1" connect="1" arrows="1" fold="1" page="1" pageScale="1" pageWidth="827" pageHeight="1169" math="0" shadow="0">
      <root>
        <mxCell id="0" />
        <mxCell id="1" parent="0" />
        <mxCell id="y_A7dy9QMldcepnnqrf8-3" value="" style="edgeStyle=orthogonalEdgeStyle;rounded=0;orthogonalLoop=1;jettySize=auto;html=1;" edge="1" parent="1" source="w9kx7WQRiTlu0Sag2TAr-1" target="w9kx7WQRiTlu0Sag2TAr-4">
          <mxGeometry relative="1" as="geometry" />
        </mxCell>
        <mxCell id="w9kx7WQRiTlu0Sag2TAr-1" value="新建宿舍分配任务基本信息" style="rounded=0;whiteSpace=wrap;html=1;" parent="1" vertex="1">
          <mxGeometry x="268" y="138" width="120" height="60" as="geometry" />
        </mxCell>
        <mxCell id="y_A7dy9QMldcepnnqrf8-2" value="" style="edgeStyle=orthogonalEdgeStyle;rounded=0;orthogonalLoop=1;jettySize=auto;html=1;" edge="1" parent="1" source="w9kx7WQRiTlu0Sag2TAr-2" target="w9kx7WQRiTlu0Sag2TAr-1">
          <mxGeometry relative="1" as="geometry" />
        </mxCell>
        <mxCell id="w9kx7WQRiTlu0Sag2TAr-2" value="开始" style="rounded=1;whiteSpace=wrap;html=1;arcSize=50;" parent="1" vertex="1">
          <mxGeometry x="90" y="148" width="120" height="40" as="geometry" />
        </mxCell>
        <mxCell id="w9kx7WQRiTlu0Sag2TAr-3" value="结束" style="rounded=1;whiteSpace=wrap;html=1;arcSize=50;" parent="1" vertex="1">
          <mxGeometry x="980" y="148" width="120" height="40" as="geometry" />
        </mxCell>
        <mxCell id="y_A7dy9QMldcepnnqrf8-4" value="" style="edgeStyle=orthogonalEdgeStyle;rounded=0;orthogonalLoop=1;jettySize=auto;html=1;" edge="1" parent="1" source="w9kx7WQRiTlu0Sag2TAr-4" target="w9kx7WQRiTlu0Sag2TAr-5">
          <mxGeometry relative="1" as="geometry" />
        </mxCell>
        <mxCell id="w9kx7WQRiTlu0Sag2TAr-4" value="选择分配对象的筛选条件" style="rounded=0;whiteSpace=wrap;html=1;" parent="1" vertex="1">
          <mxGeometry x="446" y="138" width="120" height="60" as="geometry" />
        </mxCell>
        <mxCell id="y_A7dy9QMldcepnnqrf8-5" value="" style="edgeStyle=orthogonalEdgeStyle;rounded=0;orthogonalLoop=1;jettySize=auto;html=1;" edge="1" parent="1" source="w9kx7WQRiTlu0Sag2TAr-5" target="w9kx7WQRiTlu0Sag2TAr-6">
          <mxGeometry relative="1" as="geometry" />
        </mxCell>
        <mxCell id="w9kx7WQRiTlu0Sag2TAr-5" value="生成分配明细" style="rounded=0;whiteSpace=wrap;html=1;" parent="1" vertex="1">
          <mxGeometry x="624" y="138" width="120" height="60" as="geometry" />
        </mxCell>
        <mxCell id="y_A7dy9QMldcepnnqrf8-6" value="" style="edgeStyle=orthogonalEdgeStyle;rounded=0;orthogonalLoop=1;jettySize=auto;html=1;" edge="1" parent="1" source="w9kx7WQRiTlu0Sag2TAr-6" target="w9kx7WQRiTlu0Sag2TAr-3">
          <mxGeometry relative="1" as="geometry" />
        </mxCell>
        <mxCell id="w9kx7WQRiTlu0Sag2TAr-6" value="保存分配结果" style="rounded=0;whiteSpace=wrap;html=1;" parent="1" vertex="1">
          <mxGeometry x="802" y="138" width="120" height="60" as="geometry" />
        </mxCell>
      </root>
    </mxGraphModel>
  </diagram>
</mxfile>
